<svg width="57" height="56" viewBox="0 0 57 56" fill="none" xmlns="http://www.w3.org/2000/svg">
<path fill-rule="evenodd" clip-rule="evenodd" d="M28.4115 5.24976C15.8578 5.24976 5.67773 15.4298 5.67773 27.9835C5.67773 40.5372 15.8578 50.7173 28.4115 50.7173C40.9652 50.7173 51.1452 40.5372 51.1452 27.9835C51.1461 26.4602 50.9977 24.9405 50.7022 23.4461C50.6235 23.0494 50.4097 22.6922 50.0972 22.4354C49.7847 22.1786 49.3929 22.0381 48.9884 22.0378H28.4115C27.9477 22.0378 27.5029 22.222 27.1749 22.55C26.847 22.8779 26.6627 23.3227 26.6627 23.7865V32.1805C26.6627 33.1458 27.4462 33.9293 28.4115 33.9293H37.4653C36.8003 34.938 35.9731 35.8299 35.0171 36.5687H35.0124L35.0171 36.5734C33.1279 38.0396 30.8029 38.8324 28.4115 38.8258C25.5359 38.8258 22.7782 37.6835 20.7449 35.6501C18.7115 33.6168 17.5692 30.8591 17.5692 27.9835C17.5692 25.108 18.7115 22.3502 20.7449 20.3169C22.7782 18.2836 25.5359 17.1413 28.4115 17.1413C31.1722 17.1413 33.681 18.1812 35.6023 19.888C35.9357 20.1846 36.3698 20.3426 36.8159 20.3296C37.2619 20.3166 37.6861 20.1336 38.0016 19.818L43.9357 13.8816C44.1018 13.7155 44.2327 13.5177 44.3206 13.3C44.4086 13.0823 44.4518 12.849 44.4476 12.6143C44.4435 12.3795 44.3921 12.1479 44.2966 11.9334C44.201 11.7189 44.0632 11.5258 43.8914 11.3657C39.6964 7.4335 34.1613 5.24662 28.4115 5.24976ZM35.8775 40.2248C34.2301 41.2299 32.3969 41.8921 30.4875 42.1719C28.5781 42.4516 26.6319 42.3431 24.7654 41.8528C22.899 41.3625 21.1507 40.5006 19.6253 39.3186C18.0999 38.1365 16.8288 36.6588 15.8881 34.9738L11.9779 37.9864C13.6946 40.8062 16.1081 43.1368 18.9862 44.7539C21.8643 46.371 25.1102 47.2202 28.4115 47.2198C32.6574 47.2198 36.584 45.8441 39.7667 43.5124L35.8775 40.2248ZM42.4131 41.1714C45.7808 37.607 47.6542 32.8873 47.6477 27.9835C47.6477 27.1721 47.5941 26.342 47.4962 25.5353H30.1602V30.4318H40.2703C40.5501 30.4318 40.8257 30.4989 41.0742 30.6276C41.3226 30.7562 41.5365 30.9425 41.698 31.171C41.8595 31.3994 41.9638 31.6632 42.0023 31.9403C42.0407 32.2174 42.0121 32.4997 41.9188 32.7634C41.2221 34.7222 40.111 36.5077 38.6615 37.998L42.4131 41.1714ZM12.1365 17.7265C13.868 14.9752 16.2694 12.7082 19.1158 11.1377C21.9622 9.56731 25.1606 8.74482 28.4115 8.74726C32.823 8.74726 36.8754 10.2442 40.1234 12.7484L36.6259 16.2459C34.2227 14.55 31.3528 13.6409 28.4115 13.6438C25.9298 13.6435 23.4905 14.2872 21.3321 15.5121C19.1738 16.737 17.3703 18.501 16.098 20.6318L12.1365 17.7265ZM10.5276 20.8836C9.62953 23.1427 9.17054 25.5524 9.17523 27.9835C9.17133 30.3046 9.59009 32.6069 10.411 34.778L14.5311 31.6023C14.2258 30.4202 14.0714 29.2043 14.0717 27.9835C14.0717 26.5705 14.2769 25.2042 14.657 23.9124L10.5276 20.8836Z" fill="black"/>
</svg>
