<svg width="300" height="52" viewBox="0 0 300 52" fill="none" xmlns="http://www.w3.org/2000/svg">
<rect x="1.5" y="1.5" width="53" height="48" stroke="black" stroke-width="3"/>
<mask id="mask0_17_5630" style="mask-type:luminance" maskUnits="userSpaceOnUse" x="7" y="11" width="41" height="31">
<path d="M23 13.4843H9" stroke="white" stroke-width="3" stroke-linecap="round" stroke-linejoin="round"/>
<path d="M23 21.4843H9" stroke="white" stroke-width="3" stroke-linecap="round" stroke-linejoin="round"/>
<path d="M23 29.4843H9" stroke="white" stroke-width="3" stroke-linecap="round" stroke-linejoin="round"/>
<path d="M23 37.4843H9" stroke="white" stroke-width="3" stroke-linecap="round" stroke-linejoin="round"/>
<path d="M46.3333 26.7655C46.3333 19.7318 38.1667 13.4843 27.0833 13.4843C25.9167 13.4843 23 19.328 23 26.7655C23 34.203 25.9167 40.0468 27.0833 40.0468C38.1667 40.0468 46.3333 33.7993 46.3333 26.7655Z" stroke="white" stroke-width="3" stroke-linecap="round" stroke-linejoin="round"/>
</mask>
<g mask="url(#mask0_17_5630)">
<path d="M111 -25H10V76H111V-25Z" fill="black"/>
</g>
<rect x="-1.5" y="1.5" width="54" height="46.875" transform="matrix(-1 0 0 1 176 0)" stroke="black" stroke-width="3"/>
<path d="M167.125 32.375H171.875V19.625M171.875 19.625L167.125 9H145.75L136.25 19.625M171.875 19.625H136.25M136.25 19.625H133.875C132.615 19.625 131.407 20.0728 130.516 20.8698C129.625 21.6668 129.125 22.7478 129.125 23.875V32.375H133.875M143.375 32.375H157.625M150.5 19.625V9" stroke="black" stroke-width="3" stroke-linecap="round" stroke-linejoin="round"/>
<path d="M167.125 36.625C167.125 37.7522 166.625 38.8332 165.734 39.6302C164.843 40.4272 163.635 40.875 162.375 40.875C161.115 40.875 159.907 40.4272 159.016 39.6302C158.125 38.8332 157.625 37.7522 157.625 36.625C157.625 35.4978 158.125 34.4168 159.016 33.6198C159.907 32.8228 161.115 32.375 162.375 32.375C163.635 32.375 164.843 32.8228 165.734 33.6198C166.625 34.4168 167.125 35.4978 167.125 36.625ZM143.375 36.625C143.375 37.7522 142.875 38.8332 141.984 39.6302C141.093 40.4272 139.885 40.875 138.625 40.875C137.365 40.875 136.157 40.4272 135.266 39.6302C134.375 38.8332 133.875 37.7522 133.875 36.625C133.875 35.4978 134.375 34.4168 135.266 33.6198C136.157 32.8228 137.365 32.375 138.625 32.375C139.885 32.375 141.093 32.8228 141.984 33.6198C142.875 34.4168 143.375 35.4978 143.375 36.625Z" stroke="black" stroke-width="3" stroke-linecap="round" stroke-linejoin="round"/>
<rect x="245.5" y="1.5" width="53" height="48.0625" stroke="black" stroke-width="3"/>
<path d="M255.429 42.5625H255.429H252.5C251.69 42.5625 250.922 42.269 250.362 41.7592C249.804 41.2508 249.5 40.5719 249.5 39.875V11.1875C249.5 10.4906 249.804 9.81166 250.362 9.30327C250.922 8.79346 251.69 8.5 252.5 8.5H291C291.81 8.5 292.578 8.79346 293.138 9.30327C293.696 9.81166 294 10.4906 294 11.1875V39.875C294 40.5719 293.696 41.2508 293.138 41.7592C292.578 42.269 291.81 42.5625 291 42.5625H277.571H277.571C277.325 42.5626 277.087 42.4989 276.885 42.3826C276.683 42.2664 276.528 42.1045 276.433 41.921C275.535 40.1959 274.123 38.745 272.365 37.7319C270.607 36.7188 268.573 36.1829 266.5 36.1829C264.427 36.1829 262.393 36.7188 260.635 37.7319C258.877 38.7451 257.464 40.1961 256.567 41.9214C256.471 42.1048 256.317 42.2665 256.115 42.3826C255.913 42.4989 255.675 42.5626 255.429 42.5625ZM291 40.375H291.5V39.875V11.1875V10.6875H291H252.5H252V11.1875V39.875V40.375H252.5H254.375H254.649L254.796 40.1442C256.2 37.9468 258.32 36.1909 260.874 35.1248L261.646 34.8023L260.996 34.2751C259.749 33.2637 258.876 31.937 258.483 30.4749C258.091 29.0134 258.195 27.4781 258.784 26.0698C259.373 24.6606 260.422 23.4396 261.8 22.5745C263.178 21.7092 264.817 21.2433 266.5 21.2433C268.183 21.2433 269.822 21.7092 271.2 22.5745C272.578 23.4396 273.627 24.6606 274.216 26.0698C274.805 27.4781 274.909 29.0134 274.517 30.4749C274.124 31.937 273.251 33.2637 272.004 34.2751L271.354 34.8023L272.126 35.1248C274.68 36.1909 276.8 37.9468 278.204 40.1442L278.351 40.375H278.625H291ZM284 34H284.5V33.5V17.5625V17.0625H284H259.5H259V17.5625V19.1563C259 19.4304 258.881 19.704 258.651 19.9135C258.419 20.1245 258.096 20.25 257.75 20.25C257.404 20.25 257.081 20.1245 256.849 19.9135C256.619 19.704 256.5 19.4304 256.5 19.1563V15.9688C256.5 15.6946 256.619 15.421 256.849 15.2115C257.081 15.0005 257.404 14.875 257.75 14.875H285.75C286.096 14.875 286.419 15.0005 286.651 15.2115C286.881 15.421 287 15.6946 287 15.9688V35.0938C287 35.3679 286.881 35.6415 286.651 35.851C286.419 36.062 286.096 36.1875 285.75 36.1875H282.25C281.904 36.1875 281.581 36.062 281.349 35.851C281.119 35.6415 281 35.3679 281 35.0938C281 34.8196 281.119 34.546 281.349 34.3365C281.581 34.1255 281.904 34 282.25 34H284ZM261.732 25.7667C261.094 26.6358 260.75 27.6632 260.75 28.7188C260.75 30.1353 261.368 31.4832 262.451 32.4693C263.532 33.4539 264.989 34 266.5 34C267.627 34 268.733 33.6957 269.677 33.1214C270.621 32.5468 271.364 31.7254 271.806 30.7555C272.247 29.7847 272.363 28.7134 272.138 27.6793C271.912 26.6457 271.356 25.7033 270.549 24.9682C269.742 24.2336 268.72 23.7379 267.613 23.5374C266.507 23.3369 265.359 23.4395 264.314 23.8336C263.269 24.2278 262.369 24.8982 261.732 25.7667Z" fill="black" stroke="black"/>
<path opacity="0.2" d="M285.75 15.9883V35.1367H266.5C267.884 35.1367 269.238 34.7624 270.389 34.0611C271.54 33.3597 272.437 32.3628 272.967 31.1965C273.497 30.0302 273.636 28.7469 273.365 27.5087C273.095 26.2706 272.429 25.1333 271.45 24.2406C270.471 23.348 269.223 22.74 267.866 22.4938C266.508 22.2475 265.1 22.3739 263.821 22.857C262.542 23.3401 261.449 24.1582 260.68 25.2078C259.911 26.2575 259.5 27.4915 259.5 28.7539H257.75V15.9883H285.75Z" fill="black"/>
</svg>
