<svg width="43" height="42" viewBox="0 0 43 42" fill="none" xmlns="http://www.w3.org/2000/svg">
<path fill-rule="evenodd" clip-rule="evenodd" d="M0.431641 11.6566C0.431641 8.56464 1.65993 5.5993 3.84629 3.41294C6.03265 1.22658 8.99799 -0.00170898 12.09 -0.00170898H30.7433C33.8353 -0.00170898 36.8006 1.22658 38.987 3.41294C41.1734 5.5993 42.4016 8.56464 42.4016 11.6566V30.31C42.4016 33.4019 41.1734 36.3673 38.987 38.5536C36.8006 40.74 33.8353 41.9683 30.7433 41.9683H12.09C8.99799 41.9683 6.03265 40.74 3.84629 38.5536C1.65993 36.3673 0.431641 33.4019 0.431641 30.31V11.6566ZM12.09 4.66162C10.2348 4.66162 8.45558 5.3986 7.14376 6.71041C5.83195 8.02223 5.09497 9.80144 5.09497 11.6566V30.31C5.09497 32.1651 5.83195 33.9444 7.14376 35.2562C8.45558 36.568 10.2348 37.305 12.09 37.305H30.7433C32.5985 37.305 34.3777 36.568 35.6895 35.2562C37.0013 33.9444 37.7383 32.1651 37.7383 30.31V11.6566C37.7383 9.80144 37.0013 8.02223 35.6895 6.71041C34.3777 5.3986 32.5985 4.66162 30.7433 4.66162H12.09ZM29.8036 9.82394C29.8036 9.20554 30.0493 8.61247 30.4866 8.1752C30.9238 7.73792 31.5169 7.49227 32.1353 7.49227H32.1586C32.777 7.49227 33.3701 7.73792 33.8074 8.1752C34.2446 8.61247 34.4903 9.20554 34.4903 9.82394C34.4903 10.4423 34.2446 11.0354 33.8074 11.4727C33.3701 11.9099 32.777 12.1556 32.1586 12.1556H32.1353C31.5169 12.1556 30.9238 11.9099 30.4866 11.4727C30.0493 11.0354 29.8036 10.4423 29.8036 9.82394ZM21.4166 13.9883C19.5615 13.9883 17.7822 14.7253 16.4704 16.0371C15.1586 17.3489 14.4216 19.1281 14.4216 20.9833C14.4216 22.8385 15.1586 24.6177 16.4704 25.9295C17.7822 27.2413 19.5615 27.9783 21.4166 27.9783C23.2718 27.9783 25.051 27.2413 26.3629 25.9295C27.6747 24.6177 28.4116 22.8385 28.4116 20.9833C28.4116 19.1281 27.6747 17.3489 26.3629 16.0371C25.051 14.7253 23.2718 13.9883 21.4166 13.9883ZM9.75831 20.9833C9.75831 17.8913 10.9866 14.926 13.173 12.7396C15.3593 10.5532 18.3247 9.32496 21.4166 9.32496C24.5086 9.32496 27.474 10.5532 29.6603 12.7396C31.8467 14.926 33.075 17.8913 33.075 20.9833C33.075 24.0753 31.8467 27.0406 29.6603 29.227C27.474 31.4133 24.5086 32.6416 21.4166 32.6416C18.3247 32.6416 15.3593 31.4133 13.173 29.227C10.9866 27.0406 9.75831 24.0753 9.75831 20.9833Z" fill="black"/>
</svg>
